<svg id="ew23pVPEbSK1" xmlns="http://www.w3.org/2000/svg" xmlns:xlink="http://www.w3.org/1999/xlink" viewBox="0 0 400 400" shape-rendering="geometricPrecision" text-rendering="geometricPrecision" project-id="c5c7bcd92974438081c8ef4177b248ea" export-id="3820cf5e2d99444298bb609e0b8ec81e" cached="false"><path d="M93.459648,402.273773c-7.478199-.389377-13.224825-6.767206-12.835441-14.245266l5.730753-109.587312v-.072311c.108469-1.626997-.84967-3.886716-3.39868-5.351014C33.655569,244.852756,3.234887,192.423072,3.25,135.645058C3.207968,84.015695,28.399871,35.624129,70.717416,6.045678c9.129795-6.560379,21.300541-7.016155,30.895449-1.156976c8.749794,5.278703,14.625171,15.09492,14.625171,26.393513v85.218507c-.000434,1.570052.81402,3.027842,2.151292,3.85056l40.675693,25.037682c1.446247.903887,3.290212.903887,4.736458,0l40.675693-25.037682c1.337272-.822718,2.151726-2.280508,2.151292-3.85056v-85.200429c0-11.316671,5.875378-21.132888,14.64325-26.411591c9.590587-5.851135,21.751571-5.395467,30.877371,1.156976c42.315629,29.588394,67.506103,77.983973,67.467416,129.617458.012456,56.777328-30.416795,109.202998-79.724359,137.354734-2.530932,1.464298-3.489071,3.724016-3.39868,5.351014v.072311l5.748831,109.587312c.389384,7.47806-5.357242,13.855889-12.835441,14.245266" transform="matrix(.639657 0 0 0.639657 96.738091 71.088622)" fill="#fbfbfb"/></svg>
